<svg xmlns="http://www.w3.org/2000/svg" width="59.911" height="60" viewBox="0 0 59.911 60"><defs><style>.a{fill:#d1a190;}.b{fill:#c78e7a;}.c{fill:#bd7c63;}.d{fill:#ac6a51;}.e{fill:#537983;}.f{fill:#3e5959;}.g{fill:#7ca1b1;}.h{fill:#678d98;}.i{fill:#8bbd1c;}.j{fill:#007f0e;}.k{fill:#f9efef;}.l{fill:#efe2dd;}</style></defs><g transform="translate(-0.501)"><path class="a" d="M99.167,7.494H61.4v-5.9A1.591,1.591,0,0,1,62.989,0H97.576a1.591,1.591,0,0,1,1.591,1.591Zm0,0" transform="translate(-53.761)"/><path class="b" d="M348.5,1.721V7.626h-4.671V.133h3.08A1.589,1.589,0,0,1,348.5,1.721Zm0,0" transform="translate(-303.097 -0.117)"/><path class="c" d="M74.335,60.58,70.644,50.348H32.893L29.2,60.58,29.1,61.8H74.435Zm0,0" transform="translate(-25.249 -44.448)"/><path class="a" d="M49.086,137.66H3.952L.506,179.811a1.588,1.588,0,0,0,1.582,1.718H52.673Zm0,0" transform="translate(0 -121.528)"/><path class="d" d="M352.159,60.583H347.5L343.8,50.352h4.662Zm0,0" transform="translate(-303.073 -44.451)"/><path class="b" d="M383.55,181.532h-4.662L375.3,137.664h4.664Zm0,0" transform="translate(-330.878 -121.532)"/><path class="e" d="M304.925,238.018H278.76a.6.6,0,0,1-.6-.6v-2.451a.6.6,0,0,1,.6-.6h26.164a.6.6,0,0,1,.6.6v2.451A.6.6,0,0,1,304.925,238.018Zm0,0" transform="translate(-245.118 -206.895)"/><path class="f" d="M490.157,238.018h-2.18v-3.659h2.18a.6.6,0,0,1,.6.6v2.451A.6.6,0,0,1,490.157,238.018Zm0,0" transform="translate(-430.35 -206.895)"/><path class="g" d="M314.468,203.6a.6.6,0,0,0-.587-.461H292.218a.6.6,0,0,0-.586.461l-.781,3.2h24.4Zm0,0" transform="translate(-256.325 -179.332)"/><path class="h" d="M472.024,206.8h-3.587v-3.659h2.219a.6.6,0,0,1,.587.461Zm0,0" transform="translate(-413.1 -179.332)"/><path class="i" d="M314.615,265.582l-.812,7.012-1.6,13.855-.715,6.167a2.149,2.149,0,0,1-2.178,1.843H295.332a2.149,2.149,0,0,1-2.178-1.843l-.715-6.167-1.6-13.855-.812-7.012Zm0,0" transform="translate(-255.594 -234.459)"/><path class="j" d="M440.43,265.582l-.812,7.012-1.6,13.855-.715,6.167a2.149,2.149,0,0,1-2.178,1.843h-2.582a2.149,2.149,0,0,0,2.179-1.843l.714-6.167,1.6-13.855.812-7.012Zm0,0" transform="translate(-381.409 -234.459)"/><path class="k" d="M303.336,321.248l22.383-7.873-.911,7.873-20.56,7.873Zm0,0" transform="translate(-267.346 -276.651)"/><path class="l" d="M467.117,313.375l-.912,7.873-2.7,1.035.868-7.5.054-.465Zm0,0" transform="translate(-408.745 -276.651)"/></g></svg>