<svg xmlns="http://www.w3.org/2000/svg" width="95.502" height="60" viewBox="0 0 95.502 60"><defs><style>.a{fill:#d1a190;}.b{fill:#c78e7a;}.c{fill:#f9efef;}.d{fill:#e1d3ce;}.e{fill:#ffbfab;}.f{fill:#ffcebf;}.g{fill:#efe2dd;}.h{fill:#8bbd1c;}.i{fill:#007f0e;}</style></defs><g transform="translate(0)"><path class="a" d="M185,176.235H114.891v-13.53a1.584,1.584,0,0,1,1.584-1.584H185a1.584,1.584,0,0,1,1.584,1.584v11.946A1.584,1.584,0,0,1,185,176.235Zm0,0" transform="translate(-93.46 -131.068)"/><path class="b" d="M474.039,176.235H470.2V161.121h3.836a1.584,1.584,0,0,1,1.584,1.584v11.946A1.584,1.584,0,0,1,474.039,176.235Zm0,0" transform="translate(-382.498 -131.068)"/><path class="c" d="M262.976,166.833H248.155a1.628,1.628,0,0,1-1.4-.714l-3-5h23.623l-3,5A1.628,1.628,0,0,1,262.976,166.833Zm0,0" transform="translate(-198.287 -131.068)"/><path class="d" d="M334.288,161.125l-3,5a1.626,1.626,0,0,1-1.4.714h-3.88a1.626,1.626,0,0,0,1.4-.714l3-5Zm0,0" transform="translate(-265.199 -131.071)"/><path class="a" d="M197.744,96.141H129.215a1.583,1.583,0,0,1-1.583-1.583V82.611a1.583,1.583,0,0,1,1.583-1.583h68.528a1.583,1.583,0,0,1,1.583,1.583V94.557A1.584,1.584,0,0,1,197.744,96.141Zm0,0" transform="translate(-103.826 -65.914)"/><path class="b" d="M486.781,96.141h-3.836V81.027h3.836a1.583,1.583,0,0,1,1.583,1.583V94.557A1.584,1.584,0,0,1,486.781,96.141Zm0,0" transform="translate(-392.863 -65.914)"/><path class="c" d="M275.715,86.738H260.893a1.628,1.628,0,0,1-1.4-.713l-3-5h23.623l-3,5A1.626,1.626,0,0,1,275.715,86.738Zm0,0" transform="translate(-208.65 -65.914)"/><path class="d" d="M347.027,81.027l-3,5a1.626,1.626,0,0,1-1.4.714h-3.881a1.628,1.628,0,0,0,1.4-.714l3-5Zm0,0" transform="translate(-275.561 -65.914)"/><path class="a" d="M155.947,15.114H87.419a1.583,1.583,0,0,1-1.583-1.583V1.584A1.584,1.584,0,0,1,87.419,0h68.528a1.584,1.584,0,0,1,1.583,1.584V13.53A1.583,1.583,0,0,1,155.947,15.114Zm0,0" transform="translate(-69.825)"/><path class="b" d="M444.985,15.114h-3.836V0h3.836a1.584,1.584,0,0,1,1.583,1.584V13.53A1.583,1.583,0,0,1,444.985,15.114Zm0,0" transform="translate(-358.863 0)"/><path class="c" d="M233.918,5.711H219.1a1.626,1.626,0,0,1-1.4-.713l-3-5h23.623l-3,5A1.628,1.628,0,0,1,233.918,5.711Zm0,0" transform="translate(-174.649 0)"/><path class="d" d="M305.23,0l-3,5a1.626,1.626,0,0,1-1.4.714h-3.881a1.627,1.627,0,0,0,1.4-.714l3-5Zm0,0" transform="translate(-241.56 0)"/><path class="e" d="M150.89,228.417a3.987,3.987,0,0,1-1.123,2.777c-3.335,3.451-9.794,9.35-17.372,12.223a15.577,15.577,0,0,1-6.839.944c-4.924-.416-14.551-1.635-18.927-4.947v-3.431c4.376,3.314,14,4.531,18.927,4.95a15.589,15.589,0,0,0,6.839-.946c7.578-2.872,14.037-8.77,17.372-12.221a3.91,3.91,0,0,0,.735-1.062A3.988,3.988,0,0,1,150.89,228.417Zm0,0" transform="translate(-86.74 -184.417)"/><path class="f" d="M145.478,192.431a3.994,3.994,0,0,0-4.539-1.146L130.8,195.317a6.985,6.985,0,0,1-4.672.175l-3.046-.955a.676.676,0,0,1-.123-1.238l2.716-1.491a3.3,3.3,0,0,0-2.517-6.054l-11.936,3.51a23.468,23.468,0,0,1-6.618.952h-2.457l-1.027-.107v15.884h1.027c4.377,3.312,14,4.53,18.927,4.947a15.578,15.578,0,0,0,6.84-.944c7.578-2.872,14.037-8.77,17.371-12.222A4,4,0,0,0,145.478,192.431Zm0,0" transform="translate(-82.263 -150.997)"/><path class="c" d="M79.629,223.641H74.34V205.379h5.289a.734.734,0,0,1,.734.734v16.795A.734.734,0,0,1,79.629,223.641Zm0,0" transform="translate(-60.473 -167.07)"/><path class="g" d="M79.629,273.949H74.34v-6.727h6.023v5.993A.734.734,0,0,1,79.629,273.949Zm0,0" transform="translate(-60.473 -217.379)"/><path class="h" d="M13.923,217.678H.767A.767.767,0,0,1,0,216.911V196.634a.767.767,0,0,1,.767-.766H13.922a.767.767,0,0,1,.767.766v20.277A.767.767,0,0,1,13.923,217.678Zm0,0" transform="translate(0 -159.333)"/><path class="i" d="M13.923,279.356H.767A.767.767,0,0,1,0,278.589v-6.9H14.69v6.9A.767.767,0,0,1,13.923,279.356Zm0,0" transform="translate(0 -221.011)"/></g></svg>